<svg xmlns="http://www.w3.org/2000/svg" width="540" height="960" viewBox="0 0 540 960" fill="none">
<defs>
 <linearGradient id="sky" x2="0" y2="1"><stop stop-color="#25282f"/><stop offset=".28" stop-color="#73574e"/><stop offset=".48" stop-color="#ac815b"/><stop offset=".7" stop-color="#3c5551"/><stop offset="1" stop-color="#12292d"/></linearGradient>
 <radialGradient id="aura"><stop stop-color="#f1ca83" stop-opacity=".7"/><stop offset=".3" stop-color="#ce9b63" stop-opacity=".38"/><stop offset="1" stop-color="#b77659" stop-opacity="0"/></radialGradient>
 <linearGradient id="stone" x2="1" y2=".6"><stop stop-color="#948b6d"/><stop offset=".25" stop-color="#4b6053"/><stop offset="1" stop-color="#132f32"/></linearGradient>
 <linearGradient id="fog" x2="0" y2="1"><stop stop-color="#d3b88c" stop-opacity="0"/><stop offset=".48" stop-color="#ceb58c" stop-opacity=".42"/><stop offset="1" stop-color="#b5b597" stop-opacity="0"/></linearGradient>
 <g id="isle"><path d="m0 65 19-21 22-2 17-24 31 7 13-25 21 28 41 13 17 27-34 32-13 38-25 26-6-34-31-18-22-25-29-5Z" fill="url(#stone)"/><path d="m18 54 27-3 22-21 27 10 9-23 21 25 32 7m-53 3 5 78-25-39-16-4-13-27m81 3-8 60" stroke="#b5b191" stroke-opacity=".32"/></g>
 <filter id="grain"><feTurbulence type="fractalNoise" baseFrequency=".47" numOctaves="3" seed="23"/><feColorMatrix type="saturate" values="0"/></filter>
</defs>
<path fill="url(#sky)" d="M0 0h540v960H0z"/>
<ellipse cx="263" cy="292" rx="270" ry="286" fill="url(#aura)"/>
<circle cx="262" cy="292" r="100" stroke="#d9b476" stroke-opacity=".27"/>
<circle cx="262" cy="292" r="84" stroke="#ecd094" stroke-opacity=".4"/>
<circle cx="262" cy="292" r="46" fill="#e3b87a" opacity=".31"/>
<path d="M-30 289q117-49 228-12t240-20 132 8M-20 344q127-44 280-18t310-33" stroke="#e1bb8b" stroke-width="6" stroke-opacity=".09"/>
<g opacity=".48"><use href="#isle" transform="translate(290 213) scale(.62 .8)"/><use href="#isle" transform="translate(63 284) scale(.4 .5)"/><use href="#isle" transform="translate(415 380) scale(.66 .8)"/></g>
<path d="M-30 412q147-46 274 0t321-2v128H-30Z" fill="url(#fog)"/>
<use href="#isle" transform="translate(52 380) scale(1.8 1.45)"/>
<g fill="#243d39" stroke="#b5a480" stroke-opacity=".5">
 <path d="m134 415 5-45h12l-3 43m106 0 1-48h13l2 57m-105-46h78v37h-78Z"/>
 <path d="m157 377 27-10 17-24 10 19 25 8 8 11-43-6Z"/>
 <path d="M174 383h7v22h-7m43-22h6v28h-6"/>
 <path d="m127 371 33-4-5-7-17 3-14-5Zm120-7 33-3-10-8-22 3Z"/>
 <path d="m187 413 7-15h17l6 19"/>
</g>
<path d="m124 478 6 141m14-140 1 113" stroke="#98c4b4" stroke-width="4" stroke-opacity=".26"/>
<path d="m256 450 5 148m-13-145 8 106" stroke="#adccb5" stroke-opacity=".23" stroke-width="3"/>
<g fill="#314945"><path d="m374 328 13-14 20 4-10 26-12 4Z"/><path d="m342 561 13-12 12 8-7 22Z"/><path d="m423 571 18-4 7 16-11 12Z"/></g>
<path d="M-50 596q147-58 292-6t354-16v180H-50Z" fill="url(#fog)" opacity=".8"/>
<path d="m0 703 44-38 63 21 37-29 35 47-12 23 48 69-46 54-12 73L0 960Z" fill="url(#stone)"/>
<path d="m540 591-59 10-22 31-44-6-56 47 12 34-33 26 39 110 60 63 103 54Z" fill="url(#stone)"/>
<path d="m481 605-2 87-36 31 8 84m-30-163-22 51 14 64m-327-65-6 72 42 33m-81-109 17 62" stroke="#c4b486" stroke-opacity=".24" stroke-width="2"/>
<g fill="#213b38"><path d="m27 673 5-63h16l-2 72Zm39 7 5-61h12l5 53Z"/><path d="m22 615 74-4-16-13-18 4-24-8-9 7Z"/><path d="m454 637 3-49h11l3 45m15-26 1-45h11l1 41"/></g>
<path d="M0 802q133-45 255-9t285-17v141H0Z" fill="url(#fog)" opacity=".45"/>
<g fill="#d9ba7f" opacity=".56"><circle cx="352" cy="399" r="1.5"/><circle cx="96" cy="346" r="1"/><circle cx="313" cy="621" r="1.5"/><circle cx="285" cy="164" r="1"/><circle cx="196" cy="569" r="1.6"/><circle cx="402" cy="469" r="1.2"/></g>
<path fill="#dad1b3" opacity=".045" filter="url(#grain)" d="M0 0h540v960H0z"/>
</svg>
